<?xml version="1.0" standalone="no"?>
<!DOCTYPE svg PUBLIC "-//W3C//DTD SVG 20010904//EN"
 "http://www.w3.org/TR/2001/REC-SVG-20010904/DTD/svg10.dtd">
<svg version="1.0" xmlns="http://www.w3.org/2000/svg"
 width="512.000000pt" height="512.000000pt" viewBox="0 0 512.000000 512.000000"
 preserveAspectRatio="xMidYMid meet">

<g transform="translate(0.000000,512.000000) scale(0.100000,-0.100000)"
fill="#000000" stroke="none">
<path d="M2027 5048 c-52 -19 -47 -38 88 -333 70 -152 125 -278 123 -279 -2
-2 -34 -13 -73 -25 -117 -39 -284 -109 -395 -167 -183 -97 -460 -294 -460
-329 0 -7 -11 -20 -25 -29 -70 -46 -246 -210 -330 -308 -577 -671 -687 -1609
-279 -2385 293 -559 827 -965 1445 -1097 311 -67 658 -60 971 20 609 154 1128
585 1400 1162 93 197 163 445 188 667 13 117 13 367 0 475 -47 385 -192 745
-424 1054 -81 107 -243 275 -350 361 -47 38 -86 73 -86 77 0 13 -52 60 -140
127 -199 154 -429 273 -701 365 l-134 45 -136 293 c-103 222 -142 296 -160
305 -30 16 -480 17 -522 1z m596 -393 c70 -154 136 -287 145 -296 9 -9 46 -24
82 -34 100 -27 309 -111 433 -174 115 -58 281 -160 274 -168 -3 -2 -79 5 -170
17 -209 25 -213 25 -232 -4 -16 -24 -12 -43 99 -514 l15 -63 -22 14 c-199 130
-308 184 -447 222 -280 75 -554 19 -849 -175 -50 -33 -91 -56 -91 -52 0 4 27
124 60 265 33 142 60 266 60 276 0 10 -9 26 -20 36 -19 17 -26 17 -202 -4
-101 -11 -187 -21 -193 -21 -18 1 157 109 265 164 140 72 207 100 385 161 128
43 151 54 158 75 7 21 -13 72 -112 288 -67 145 -121 265 -121 268 0 2 80 3
177 2 l177 -3 129 -280z m-773 -762 c-1 -16 -58 -244 -61 -246 -2 -2 -37 -22
-77 -46 -330 -193 -599 -528 -722 -898 -294 -887 206 -1847 1101 -2113 347
-103 740 -88 1066 40 211 84 386 196 551 355 257 246 416 539 489 903 28 136
25 471 -6 612 -43 201 -126 409 -228 569 -137 216 -354 422 -584 554 l-46 27
-28 120 c-15 66 -26 122 -24 124 2 2 99 -8 215 -23 l211 -26 77 -59 c558 -427
856 -1113 786 -1807 -47 -464 -252 -893 -584 -1225 -545 -543 -1326 -728
-2055 -488 -653 215 -1158 756 -1325 1422 -79 314 -80 670 0 983 110 439 373
841 724 1106 l95 71 205 25 c113 13 208 25 213 26 4 0 7 -2 7 -6z m660 -522
c0 -195 1 -200 22 -215 30 -21 44 -20 68 4 19 19 20 33 20 216 l0 197 54 -7
c114 -13 295 -86 434 -176 l63 -40 -36 -66 c-41 -73 -42 -102 -3 -124 37 -20
54 -9 97 63 l34 57 38 -35 c22 -20 50 -35 63 -35 29 0 56 24 56 50 0 16 -32
165 -46 213 -9 30 12 19 113 -57 116 -87 258 -231 331 -336 62 -88 78 -66
-129 -185 -155 -90 -172 -108 -143 -152 9 -14 24 -23 41 -23 14 0 87 35 162
79 75 43 146 83 158 90 21 11 24 8 51 -46 75 -148 121 -320 147 -550 l6 -53
-268 0 c-297 0 -313 -3 -313 -60 0 -57 16 -60 313 -60 l268 0 -6 -52 c-26
-231 -72 -403 -147 -551 -27 -54 -30 -57 -51 -46 -12 7 -83 47 -158 90 -75 44
-148 79 -162 79 -17 0 -32 -9 -41 -23 -29 -44 -12 -62 143 -152 207 -119 191
-97 129 -185 -73 -105 -215 -249 -332 -337 -54 -41 -100 -73 -101 -71 -2 2
-44 73 -93 158 -99 172 -123 195 -166 167 -14 -10 -26 -27 -26 -39 0 -11 41
-93 91 -180 61 -105 89 -162 82 -169 -18 -18 -190 -88 -280 -113 -110 -32
-249 -56 -319 -56 l-54 0 0 270 c0 257 -1 271 -20 290 -24 24 -38 25 -68 4
-22 -15 -22 -17 -22 -290 l0 -274 -52 0 c-136 0 -383 62 -531 133 l-87 42 96
166 c88 154 94 168 83 192 -13 30 -39 42 -68 32 -12 -4 -56 -69 -112 -165 -50
-88 -97 -160 -104 -160 -23 0 -180 125 -270 216 -83 84 -205 239 -205 260 1 5
64 45 142 89 77 44 151 88 164 98 43 33 22 97 -31 97 -12 0 -89 -39 -170 -86
-80 -47 -152 -87 -159 -90 -8 -3 -24 20 -43 63 -76 169 -124 347 -138 516 l-7
77 271 0 c258 0 272 1 291 20 25 25 25 55 0 80 -19 19 -33 20 -291 20 l-271 0
7 78 c15 171 55 324 127 490 27 62 45 91 54 88 7 -3 79 -44 160 -91 165 -96
200 -104 218 -52 7 19 7 34 0 45 -6 9 -81 58 -167 107 -86 50 -156 94 -157 99
0 13 83 127 150 205 65 74 193 186 280 244 30 21 58 37 61 37 3 0 -4 -44 -17
-97 -27 -109 -30 -153 -12 -171 21 -21 66 -13 101 18 19 17 37 30 40 30 3 0
20 -25 37 -54 17 -30 40 -58 50 -61 30 -10 60 4 71 32 8 21 3 36 -27 90 -43
77 -46 70 76 143 137 81 319 148 408 149 l32 1 0 -199z"/>
<path d="M2490 4100 c-115 -15 -283 -89 -323 -142 -15 -21 -17 -30 -8 -47 24
-45 44 -44 138 3 198 101 338 102 530 1 50 -26 91 -41 101 -38 31 11 42 25 42
53 0 35 -29 59 -125 105 -117 56 -247 80 -355 65z"/>
<path d="M2912 2883 c-11 -10 -106 -167 -211 -350 l-191 -332 0 -198 c0 -213
2 -223 50 -223 54 0 60 20 60 210 l0 173 190 330 c105 181 190 339 190 352 0
23 -33 55 -56 55 -7 0 -21 -8 -32 -17z"/>
</g>
</svg>
